<svg xmlns="http://www.w3.org/2000/svg" xml:space="preserve" width="450" height="559.212"><defs><clipPath id="a" clipPathUnits="userSpaceOnUse"><path d="M0 405.263h626.316V0H0Z"/></clipPath></defs><g clip-path="url(#a)" style="stroke-width:.99975;stroke-dasharray:none" transform="matrix(3.60009 0 0 -3.60009 -204.26 1013.669)"><g style="stroke-width:.99975;stroke-dasharray:none"><path d="M0 0c-42.825 0-77.666 34.842-77.666 77.666 0 42.825 34.841 77.667 77.666 77.667 15.812 0 31.031-4.728 44.012-13.673a4.334 4.334 0 0 0-4.916-7.136C27.566 142.469 14.047 146.667 0 146.667c-38.047 0-69-30.953-69-69.001 0-38.047 30.953-69 69-69 14.047 0 27.566 4.198 39.096 12.143a4.333 4.333 0 0 0 4.916-7.136C31.031 4.728 15.812 0 0 0" style="fill:#35528f;fill-opacity:1;fill-rule:nonzero;stroke:none;stroke-width:.99975;stroke-dasharray:none" transform="translate(134.404 126.235)"/></g><g style="stroke-width:.99975;stroke-dasharray:none"><path d="M0 0a5.78 5.78 0 0 0-5.777 5.777v54.579l-15.341-46.831a5.778 5.778 0 0 0-10.98 0l-15.341 46.83V5.777a5.777 5.777 0 0 0-11.554 0v60.556a5.777 5.777 0 0 0 5.777 5.777h9.898a5.78 5.78 0 0 0 5.489-3.978l11.221-34.252 11.221 34.252a5.78 5.78 0 0 0 5.49 3.978H0a5.777 5.777 0 0 0 5.777-5.777V5.777A5.777 5.777 0 0 0 0 0" style="fill:#35528f;fill-opacity:1;fill-rule:nonzero;stroke:none;stroke-width:.99975;stroke-dasharray:none" transform="translate(166.184 164.76)"/></g><g style="stroke-width:.99975;stroke-dasharray:none"><path d="M0 0c-42.825 0-77.666 34.842-77.666 77.666 0 42.825 34.841 77.667 77.666 77.667 15.811 0 31.03-4.728 44.012-13.673a4.334 4.334 0 0 0-4.916-7.136C27.566 142.469 14.047 146.667 0 146.667c-38.047 0-69-30.953-69-69.001 0-38.047 30.953-69 69-69 14.047 0 27.566 4.198 39.096 12.143a4.333 4.333 0 0 0 4.916-7.136C31.03 4.728 15.811 0 0 0" style="fill:#35528f;fill-opacity:1;fill-rule:nonzero;stroke:none;stroke-width:.99975;stroke-dasharray:none" transform="translate(135.126 126.235)"/></g><g style="stroke-width:.99975;stroke-dasharray:none"><path d="M0 0a5.78 5.78 0 0 0-5.777 5.777v54.578l-15.341-46.83a5.777 5.777 0 0 0-10.98 0l-15.341 46.831V5.777a5.777 5.777 0 0 0-11.554 0v60.556a5.777 5.777 0 0 0 5.777 5.777h9.898a5.78 5.78 0 0 0 5.489-3.978l11.221-34.252 11.221 34.252a5.78 5.78 0 0 0 5.49 3.978H0a5.777 5.777 0 0 0 5.777-5.777V5.777A5.777 5.777 0 0 0 0 0" style="fill:#35528f;fill-opacity:1;fill-rule:nonzero;stroke:none;stroke-width:.99975;stroke-dasharray:none" transform="translate(166.906 164.76)"/></g><g style="stroke-width:.99975;stroke-dasharray:none"><path d="M0 0c-42.825 0-77.666 34.842-77.666 77.666 0 42.825 34.841 77.667 77.666 77.667 15.811 0 31.03-4.728 44.012-13.673a4.334 4.334 0 0 0-4.916-7.136C27.566 142.469 14.047 146.667 0 146.667c-38.047 0-69-30.953-69-69.001 0-38.047 30.953-69 69-69 14.047 0 27.566 4.198 39.096 12.143a4.333 4.333 0 0 0 4.916-7.136C31.03 4.728 15.811 0 0 0" style="fill:#35528f;fill-opacity:1;fill-rule:nonzero;stroke:none;stroke-width:.99975;stroke-dasharray:none" transform="translate(135.848 126.235)"/></g><g style="stroke-width:.99975;stroke-dasharray:none"><path d="M0 0a5.78 5.78 0 0 0-5.777 5.777v54.578l-15.341-46.83a5.777 5.777 0 0 0-10.98 0l-15.341 46.831V5.777a5.777 5.777 0 0 0-11.554 0v60.556a5.777 5.777 0 0 0 5.777 5.777h9.898a5.78 5.78 0 0 0 5.489-3.978l11.221-34.252 11.221 34.252a5.78 5.78 0 0 0 5.49 3.978H0a5.777 5.777 0 0 0 5.777-5.777V5.777A5.777 5.777 0 0 0 0 0" style="fill:#35528f;fill-opacity:1;fill-rule:nonzero;stroke:none;stroke-width:.99975;stroke-dasharray:none" transform="translate(167.628 164.76)"/></g></g></svg>